<mxfile host="app.diagrams.net" modified="2024-01-12T02:37:10.671Z" agent="Mozilla/5.0 (Windows NT 10.0; Win64; x64) AppleWebKit/537.36 (KHTML, like Gecko) Chrome/120.0.0.0 Safari/537.36" etag="G0ZQyAJebvQJW1_trKKb" version="21.2.3" type="github">
  <diagram name="第 1 页" id="CZe-ud8vHtpoBvXBYGIE">
    <mxGraphModel dx="1050" dy="652" grid="1" gridSize="10" guides="1" tooltips="1" connect="1" arrows="1" fold="1" page="1" pageScale="1" pageWidth="827" pageHeight="1169" math="0" shadow="0">
      <root>
        <mxCell id="0" />
        <mxCell id="1" parent="0" />
        <mxCell id="y8qSzoBmnQ5KJykXtGh9-1" value="" style="rounded=1;whiteSpace=wrap;html=1;" parent="1" vertex="1">
          <mxGeometry x="340" y="160" width="120" height="60" as="geometry" />
        </mxCell>
        <mxCell id="y8qSzoBmnQ5KJykXtGh9-2" value="" style="rounded=0;whiteSpace=wrap;html=1;fillColor=none;" parent="1" vertex="1">
          <mxGeometry x="343.12" y="200" width="1046.88" height="990" as="geometry" />
        </mxCell>
        <mxCell id="y8qSzoBmnQ5KJykXtGh9-3" style="edgeStyle=orthogonalEdgeStyle;rounded=0;orthogonalLoop=1;jettySize=auto;html=1;fontSize=14;" parent="1" source="y8qSzoBmnQ5KJykXtGh9-4" target="y8qSzoBmnQ5KJykXtGh9-42" edge="1">
          <mxGeometry relative="1" as="geometry" />
        </mxCell>
        <mxCell id="y8qSzoBmnQ5KJykXtGh9-4" value="" style="rounded=0;whiteSpace=wrap;html=1;fillColor=none;strokeColor=#6c8ebf;dashed=1;strokeWidth=2;" parent="1" vertex="1">
          <mxGeometry x="720" y="220" width="250" height="280" as="geometry" />
        </mxCell>
        <mxCell id="y8qSzoBmnQ5KJykXtGh9-5" value="" style="rounded=0;whiteSpace=wrap;html=1;strokeColor=#005700;strokeWidth=1;fontSize=14;fillColor=none;fontColor=#ffffff;" parent="1" vertex="1">
          <mxGeometry x="392" y="360" width="230" height="60" as="geometry" />
        </mxCell>
        <mxCell id="y8qSzoBmnQ5KJykXtGh9-6" style="edgeStyle=orthogonalEdgeStyle;rounded=0;orthogonalLoop=1;jettySize=auto;html=1;entryX=-0.003;entryY=0.443;entryDx=0;entryDy=0;entryPerimeter=0;fontSize=14;" parent="1" source="y8qSzoBmnQ5KJykXtGh9-8" target="y8qSzoBmnQ5KJykXtGh9-4" edge="1">
          <mxGeometry relative="1" as="geometry" />
        </mxCell>
        <mxCell id="y8qSzoBmnQ5KJykXtGh9-7" style="edgeStyle=orthogonalEdgeStyle;rounded=0;orthogonalLoop=1;jettySize=auto;html=1;entryX=0.5;entryY=0;entryDx=0;entryDy=0;fontSize=14;" parent="1" source="y8qSzoBmnQ5KJykXtGh9-8" target="y8qSzoBmnQ5KJykXtGh9-73" edge="1">
          <mxGeometry relative="1" as="geometry" />
        </mxCell>
        <mxCell id="y8qSzoBmnQ5KJykXtGh9-8" value="" style="rounded=0;whiteSpace=wrap;html=1;fillColor=none;strokeColor=#6c8ebf;dashed=1;strokeWidth=2;" parent="1" vertex="1">
          <mxGeometry x="370" y="220" width="270" height="220" as="geometry" />
        </mxCell>
        <mxCell id="y8qSzoBmnQ5KJykXtGh9-9" value="" style="rounded=0;whiteSpace=wrap;html=1;strokeColor=#6c8ebf;strokeWidth=1;fontSize=14;fillColor=#dae8fc;" parent="1" vertex="1">
          <mxGeometry x="392" y="250" width="230" height="65" as="geometry" />
        </mxCell>
        <mxCell id="y8qSzoBmnQ5KJykXtGh9-10" style="edgeStyle=orthogonalEdgeStyle;rounded=0;orthogonalLoop=1;jettySize=auto;html=1;entryX=0;entryY=0.25;entryDx=0;entryDy=0;fontSize=18;" parent="1" source="y8qSzoBmnQ5KJykXtGh9-11" target="y8qSzoBmnQ5KJykXtGh9-8" edge="1">
          <mxGeometry relative="1" as="geometry" />
        </mxCell>
        <mxCell id="y8qSzoBmnQ5KJykXtGh9-11" value="&lt;font style=&quot;font-size: 15px;&quot;&gt;汽车&lt;/font&gt;" style="shape=image;html=1;verticalAlign=top;verticalLabelPosition=bottom;labelBackgroundColor=#ffffff;imageAspect=0;aspect=fixed;image=https://cdn4.iconfinder.com/data/icons/transportation-and-vehicle/128/Transportation_And_Vehicle_3-03-128.png" parent="1" vertex="1">
          <mxGeometry x="150" y="257.5" width="50" height="50" as="geometry" />
        </mxCell>
        <mxCell id="y8qSzoBmnQ5KJykXtGh9-12" value="&lt;font style=&quot;font-size: 14px;&quot;&gt;接入网关&lt;/font&gt;" style="rounded=1;whiteSpace=wrap;html=1;fillColor=none;strokeColor=none;fontStyle=1" parent="1" vertex="1">
          <mxGeometry x="460" y="220" width="120" height="30" as="geometry" />
        </mxCell>
        <mxCell id="y8qSzoBmnQ5KJykXtGh9-13" value="TCP" style="rounded=0;whiteSpace=wrap;html=1;strokeWidth=1;fontSize=14;fillColor=none;strokeColor=none;" parent="1" vertex="1">
          <mxGeometry x="405" y="250" width="40" height="30" as="geometry" />
        </mxCell>
        <mxCell id="y8qSzoBmnQ5KJykXtGh9-14" value="MQTT" style="rounded=0;whiteSpace=wrap;html=1;strokeWidth=1;fontSize=14;fillColor=default;strokeColor=#10739e;" parent="1" vertex="1">
          <mxGeometry x="415" y="277" width="190" height="30" as="geometry" />
        </mxCell>
        <mxCell id="y8qSzoBmnQ5KJykXtGh9-15" value="编码解码" style="rounded=0;whiteSpace=wrap;html=1;strokeColor=#82b366;strokeWidth=1;fontSize=14;fillColor=#d5e8d4;" parent="1" vertex="1">
          <mxGeometry x="549" y="375" width="66" height="30" as="geometry" />
        </mxCell>
        <mxCell id="y8qSzoBmnQ5KJykXtGh9-16" value="会话" style="rounded=0;whiteSpace=wrap;html=1;strokeColor=#82b366;strokeWidth=1;fontSize=14;fillColor=#d5e8d4;" parent="1" vertex="1">
          <mxGeometry x="474" y="375" width="66" height="30" as="geometry" />
        </mxCell>
        <mxCell id="y8qSzoBmnQ5KJykXtGh9-17" value="认证" style="rounded=0;whiteSpace=wrap;html=1;strokeColor=#82b366;strokeWidth=1;fontSize=14;fillColor=#d5e8d4;" parent="1" vertex="1">
          <mxGeometry x="400" y="375" width="66" height="30" as="geometry" />
        </mxCell>
        <mxCell id="y8qSzoBmnQ5KJykXtGh9-18" value="" style="endArrow=classic;startArrow=classic;html=1;rounded=0;fontSize=14;" parent="1" edge="1">
          <mxGeometry width="50" height="50" relative="1" as="geometry">
            <mxPoint x="445" y="357" as="sourcePoint" />
            <mxPoint x="445" y="317" as="targetPoint" />
          </mxGeometry>
        </mxCell>
        <mxCell id="y8qSzoBmnQ5KJykXtGh9-19" value="" style="endArrow=classic;startArrow=classic;html=1;rounded=0;fontSize=14;" parent="1" edge="1">
          <mxGeometry width="50" height="50" relative="1" as="geometry">
            <mxPoint x="562" y="355" as="sourcePoint" />
            <mxPoint x="562" y="315" as="targetPoint" />
          </mxGeometry>
        </mxCell>
        <mxCell id="y8qSzoBmnQ5KJykXtGh9-20" style="edgeStyle=orthogonalEdgeStyle;rounded=0;orthogonalLoop=1;jettySize=auto;html=1;fontSize=14;" parent="1" source="y8qSzoBmnQ5KJykXtGh9-21" target="y8qSzoBmnQ5KJykXtGh9-34" edge="1">
          <mxGeometry relative="1" as="geometry" />
        </mxCell>
        <mxCell id="y8qSzoBmnQ5KJykXtGh9-21" value="" style="rounded=0;whiteSpace=wrap;html=1;strokeColor=#005700;strokeWidth=1;fontSize=14;fillColor=none;fontColor=#ffffff;" parent="1" vertex="1">
          <mxGeometry x="730" y="360" width="230" height="120" as="geometry" />
        </mxCell>
        <mxCell id="y8qSzoBmnQ5KJykXtGh9-22" value="" style="rounded=0;whiteSpace=wrap;html=1;strokeColor=#6c8ebf;strokeWidth=1;fontSize=14;fillColor=#dae8fc;" parent="1" vertex="1">
          <mxGeometry x="730" y="250" width="230" height="65" as="geometry" />
        </mxCell>
        <mxCell id="y8qSzoBmnQ5KJykXtGh9-23" value="&lt;font style=&quot;font-size: 14px;&quot;&gt;Pub/Sub Service&lt;/font&gt;" style="rounded=1;whiteSpace=wrap;html=1;fillColor=none;strokeColor=none;fontStyle=1" parent="1" vertex="1">
          <mxGeometry x="790" y="220" width="120" height="30" as="geometry" />
        </mxCell>
        <mxCell id="y8qSzoBmnQ5KJykXtGh9-24" value="Topic" style="rounded=0;whiteSpace=wrap;html=1;strokeWidth=1;fontSize=14;fillColor=none;strokeColor=none;" parent="1" vertex="1">
          <mxGeometry x="740" y="247" width="40" height="30" as="geometry" />
        </mxCell>
        <mxCell id="y8qSzoBmnQ5KJykXtGh9-25" value="发布者" style="rounded=0;whiteSpace=wrap;html=1;strokeColor=#82b366;strokeWidth=1;fontSize=14;fillColor=#d5e8d4;" parent="1" vertex="1">
          <mxGeometry x="860" y="390" width="90" height="30" as="geometry" />
        </mxCell>
        <mxCell id="y8qSzoBmnQ5KJykXtGh9-26" value="订阅者" style="rounded=0;whiteSpace=wrap;html=1;strokeColor=#82b366;strokeWidth=1;fontSize=14;fillColor=#d5e8d4;" parent="1" vertex="1">
          <mxGeometry x="740" y="390" width="100" height="30" as="geometry" />
        </mxCell>
        <mxCell id="y8qSzoBmnQ5KJykXtGh9-27" value="" style="endArrow=classic;startArrow=classic;html=1;rounded=0;fontSize=14;" parent="1" edge="1">
          <mxGeometry width="50" height="50" relative="1" as="geometry">
            <mxPoint x="783" y="357" as="sourcePoint" />
            <mxPoint x="783" y="317" as="targetPoint" />
          </mxGeometry>
        </mxCell>
        <mxCell id="y8qSzoBmnQ5KJykXtGh9-28" value="" style="endArrow=classic;startArrow=classic;html=1;rounded=0;fontSize=14;" parent="1" edge="1">
          <mxGeometry width="50" height="50" relative="1" as="geometry">
            <mxPoint x="900" y="355" as="sourcePoint" />
            <mxPoint x="900" y="315" as="targetPoint" />
          </mxGeometry>
        </mxCell>
        <mxCell id="y8qSzoBmnQ5KJykXtGh9-29" value="Publish" style="rounded=0;whiteSpace=wrap;html=1;strokeWidth=1;fontSize=14;fillColor=default;strokeColor=#10739e;" parent="1" vertex="1">
          <mxGeometry x="860" y="277" width="90" height="30" as="geometry" />
        </mxCell>
        <mxCell id="y8qSzoBmnQ5KJykXtGh9-30" value="Subscribe" style="rounded=0;whiteSpace=wrap;html=1;strokeWidth=1;fontSize=14;fillColor=default;strokeColor=#10739e;" parent="1" vertex="1">
          <mxGeometry x="740" y="277" width="90" height="30" as="geometry" />
        </mxCell>
        <mxCell id="y8qSzoBmnQ5KJykXtGh9-31" value="Connector" style="rounded=0;whiteSpace=wrap;html=1;strokeColor=none;fillColor=none;" parent="1" vertex="1">
          <mxGeometry x="720" y="360" width="100" height="30" as="geometry" />
        </mxCell>
        <mxCell id="y8qSzoBmnQ5KJykXtGh9-32" value="汽车信息" style="rounded=0;whiteSpace=wrap;html=1;strokeColor=#82b366;strokeWidth=1;fontSize=14;fillColor=#d5e8d4;" parent="1" vertex="1">
          <mxGeometry x="860" y="440" width="90" height="30" as="geometry" />
        </mxCell>
        <mxCell id="y8qSzoBmnQ5KJykXtGh9-33" value="通知消息" style="rounded=0;whiteSpace=wrap;html=1;strokeColor=#82b366;strokeWidth=1;fontSize=14;fillColor=#d5e8d4;" parent="1" vertex="1">
          <mxGeometry x="740" y="440" width="100" height="30" as="geometry" />
        </mxCell>
        <mxCell id="y8qSzoBmnQ5KJykXtGh9-34" value="" style="rounded=0;whiteSpace=wrap;html=1;fillColor=none;strokeColor=#6c8ebf;dashed=1;strokeWidth=2;" parent="1" vertex="1">
          <mxGeometry x="1050" y="220" width="300" height="260" as="geometry" />
        </mxCell>
        <mxCell id="y8qSzoBmnQ5KJykXtGh9-35" value="&lt;span style=&quot;font-size: 14px;&quot;&gt;数据持久化&lt;/span&gt;" style="rounded=1;whiteSpace=wrap;html=1;fillColor=none;strokeColor=none;fontStyle=1" parent="1" vertex="1">
          <mxGeometry x="1120" y="220" width="120" height="30" as="geometry" />
        </mxCell>
        <mxCell id="y8qSzoBmnQ5KJykXtGh9-36" value="PostgresSQL - 保存业务数据" style="rounded=0;whiteSpace=wrap;html=1;strokeColor=#6c8ebf;strokeWidth=1;fontSize=14;fillColor=#dae8fc;" parent="1" vertex="1">
          <mxGeometry x="1070" y="257.5" width="120" height="50" as="geometry" />
        </mxCell>
        <mxCell id="y8qSzoBmnQ5KJykXtGh9-37" value="Redis - 缓存汽车地理位置、经纬度等" style="rounded=0;whiteSpace=wrap;html=1;strokeColor=#6c8ebf;strokeWidth=1;fontSize=14;fillColor=#dae8fc;" parent="1" vertex="1">
          <mxGeometry x="1070" y="335" width="120" height="50" as="geometry" />
        </mxCell>
        <mxCell id="y8qSzoBmnQ5KJykXtGh9-38" value="Cassandra - 保存非结构化信息" style="rounded=0;whiteSpace=wrap;html=1;strokeColor=#6c8ebf;strokeWidth=1;fontSize=14;fillColor=#dae8fc;" parent="1" vertex="1">
          <mxGeometry x="1070" y="410" width="120" height="50" as="geometry" />
        </mxCell>
        <mxCell id="y8qSzoBmnQ5KJykXtGh9-39" value="Prometheus - 平台运行监控指标" style="rounded=0;whiteSpace=wrap;html=1;strokeColor=#6c8ebf;strokeWidth=1;fontSize=14;fillColor=#dae8fc;" parent="1" vertex="1">
          <mxGeometry x="1210" y="257" width="120" height="83" as="geometry" />
        </mxCell>
        <mxCell id="y8qSzoBmnQ5KJykXtGh9-40" value="Elasticsearch - 平台日志" style="rounded=0;whiteSpace=wrap;html=1;strokeColor=#6c8ebf;strokeWidth=1;fontSize=14;fillColor=#dae8fc;" parent="1" vertex="1">
          <mxGeometry x="1210" y="370" width="120" height="90" as="geometry" />
        </mxCell>
        <mxCell id="y8qSzoBmnQ5KJykXtGh9-41" value="" style="group" parent="1" vertex="1" connectable="0">
          <mxGeometry x="670" y="560" width="680" height="890" as="geometry" />
        </mxCell>
        <mxCell id="y8qSzoBmnQ5KJykXtGh9-42" value="" style="rounded=0;whiteSpace=wrap;html=1;fillColor=none;strokeColor=#6c8ebf;dashed=1;strokeWidth=2;" parent="y8qSzoBmnQ5KJykXtGh9-41" vertex="1">
          <mxGeometry width="680" height="610" as="geometry" />
        </mxCell>
        <mxCell id="y8qSzoBmnQ5KJykXtGh9-43" value="" style="rounded=0;whiteSpace=wrap;html=1;strokeColor=#6c8ebf;strokeWidth=1;fontSize=14;fillColor=#dae8fc;" parent="y8qSzoBmnQ5KJykXtGh9-41" vertex="1">
          <mxGeometry x="195.3674832962138" y="93.84615384615384" width="464.43949517446174" height="290.9230769230769" as="geometry" />
        </mxCell>
        <mxCell id="y8qSzoBmnQ5KJykXtGh9-44" value="&lt;span style=&quot;font-size: 14px;&quot;&gt;基于Apache Storm 的消息处理平台&lt;/span&gt;" style="rounded=1;whiteSpace=wrap;html=1;fillColor=none;strokeColor=none;fontStyle=1" parent="y8qSzoBmnQ5KJykXtGh9-41" vertex="1">
          <mxGeometry x="1.51" width="268.49" height="28.15" as="geometry" />
        </mxCell>
        <mxCell id="y8qSzoBmnQ5KJykXtGh9-45" style="edgeStyle=orthogonalEdgeStyle;rounded=0;orthogonalLoop=1;jettySize=auto;html=1;entryX=0;entryY=0.25;entryDx=0;entryDy=0;fontSize=14;" parent="y8qSzoBmnQ5KJykXtGh9-41" source="y8qSzoBmnQ5KJykXtGh9-46" target="y8qSzoBmnQ5KJykXtGh9-43" edge="1">
          <mxGeometry relative="1" as="geometry" />
        </mxCell>
        <mxCell id="y8qSzoBmnQ5KJykXtGh9-46" value="" style="rounded=0;whiteSpace=wrap;html=1;strokeColor=#6c8ebf;strokeWidth=1;fontSize=14;fillColor=#dae8fc;" parent="y8qSzoBmnQ5KJykXtGh9-41" vertex="1">
          <mxGeometry x="9.591685226429101" y="93.84615384615384" width="135.29324424647365" height="75.07692307692308" as="geometry" />
        </mxCell>
        <mxCell id="y8qSzoBmnQ5KJykXtGh9-47" value="主节点" style="rounded=0;whiteSpace=wrap;html=1;strokeColor=none;strokeWidth=1;fontSize=14;fillColor=none;fontStyle=1" parent="y8qSzoBmnQ5KJykXtGh9-41" vertex="1">
          <mxGeometry x="25.24127691165553" y="93.84615384615384" width="97.93615441722346" height="28.153846153846153" as="geometry" />
        </mxCell>
        <mxCell id="y8qSzoBmnQ5KJykXtGh9-48" value="ZooKeeper集群" style="rounded=0;whiteSpace=wrap;html=1;strokeColor=#6c8ebf;strokeWidth=1;fontSize=14;fillColor=#dae8fc;" parent="y8qSzoBmnQ5KJykXtGh9-41" vertex="1">
          <mxGeometry x="8.58203414996288" y="37.53846153846154" width="651.2249443207127" height="28.153846153846153" as="geometry" />
        </mxCell>
        <mxCell id="y8qSzoBmnQ5KJykXtGh9-49" value="Nimbus" style="rounded=0;whiteSpace=wrap;html=1;strokeWidth=1;fontSize=14;fillColor=default;strokeColor=#10739e;" parent="y8qSzoBmnQ5KJykXtGh9-41" vertex="1">
          <mxGeometry x="25.24127691165553" y="131.3846153846154" width="103.99406087602078" height="28.153846153846153" as="geometry" />
        </mxCell>
        <mxCell id="y8qSzoBmnQ5KJykXtGh9-50" value="工作节点" style="rounded=0;whiteSpace=wrap;html=1;strokeColor=none;strokeWidth=1;fontSize=14;fillColor=none;fontStyle=1" parent="y8qSzoBmnQ5KJykXtGh9-41" vertex="1">
          <mxGeometry x="185.2709725315516" y="93.84615384615384" width="97.93615441722346" height="28.153846153846153" as="geometry" />
        </mxCell>
        <mxCell id="y8qSzoBmnQ5KJykXtGh9-51" value="Supervisor" style="rounded=0;whiteSpace=wrap;html=1;strokeWidth=1;fontSize=14;fillColor=default;strokeColor=#10739e;" parent="y8qSzoBmnQ5KJykXtGh9-41" vertex="1">
          <mxGeometry x="205.46399406087602" y="126.6923076923077" width="90.8685968819599" height="28.153846153846153" as="geometry" />
        </mxCell>
        <mxCell id="y8qSzoBmnQ5KJykXtGh9-52" value="" style="rounded=0;whiteSpace=wrap;html=1;strokeWidth=1;fontSize=14;fillColor=default;strokeColor=#10739e;" parent="y8qSzoBmnQ5KJykXtGh9-41" vertex="1">
          <mxGeometry x="361.9599109131403" y="126.6923076923077" width="282.70230141054196" height="183" as="geometry" />
        </mxCell>
        <mxCell id="y8qSzoBmnQ5KJykXtGh9-53" style="edgeStyle=orthogonalEdgeStyle;rounded=0;orthogonalLoop=1;jettySize=auto;html=1;entryX=0;entryY=0.25;entryDx=0;entryDy=0;fontSize=14;" parent="y8qSzoBmnQ5KJykXtGh9-41" source="y8qSzoBmnQ5KJykXtGh9-51" target="y8qSzoBmnQ5KJykXtGh9-52" edge="1">
          <mxGeometry relative="1" as="geometry" />
        </mxCell>
        <mxCell id="y8qSzoBmnQ5KJykXtGh9-54" value="worker进程" style="rounded=0;whiteSpace=wrap;html=1;strokeWidth=1;fontSize=14;fillColor=default;strokeColor=none;" parent="y8qSzoBmnQ5KJykXtGh9-41" vertex="1">
          <mxGeometry x="370.5419450631032" y="131.3846153846154" width="103.99406087602078" height="28.153846153846153" as="geometry" />
        </mxCell>
        <mxCell id="y8qSzoBmnQ5KJykXtGh9-55" value="" style="rounded=0;whiteSpace=wrap;html=1;strokeColor=default;strokeWidth=1;fontSize=14;fillColor=none;" parent="y8qSzoBmnQ5KJykXtGh9-41" vertex="1">
          <mxGeometry x="372.0564216778025" y="159.53846153846155" width="121.15812917594654" height="131.3846153846154" as="geometry" />
        </mxCell>
        <mxCell id="y8qSzoBmnQ5KJykXtGh9-56" value="Executor线程" style="rounded=0;whiteSpace=wrap;html=1;strokeColor=none;strokeWidth=1;fontSize=14;fillColor=none;" parent="y8qSzoBmnQ5KJykXtGh9-41" vertex="1">
          <mxGeometry x="370.5419450631032" y="159.53846153846155" width="100.96510764662212" height="32.84615384615385" as="geometry" />
        </mxCell>
        <mxCell id="y8qSzoBmnQ5KJykXtGh9-57" value="业务逻辑 task" style="rounded=0;whiteSpace=wrap;html=1;strokeColor=default;strokeWidth=1;fontSize=14;fillColor=none;dashed=1;" parent="y8qSzoBmnQ5KJykXtGh9-41" vertex="1">
          <mxGeometry x="382.1529324424647" y="187.69230769230768" width="100.96510764662212" height="37.53846153846154" as="geometry" />
        </mxCell>
        <mxCell id="y8qSzoBmnQ5KJykXtGh9-58" value="业务逻辑 task" style="rounded=0;whiteSpace=wrap;html=1;strokeColor=default;strokeWidth=1;fontSize=14;fillColor=none;dashed=1;" parent="y8qSzoBmnQ5KJykXtGh9-41" vertex="1">
          <mxGeometry x="382.1529324424647" y="242.12307692307692" width="100.96510764662212" height="37.53846153846154" as="geometry" />
        </mxCell>
        <mxCell id="y8qSzoBmnQ5KJykXtGh9-59" value="" style="rounded=0;whiteSpace=wrap;html=1;strokeColor=default;strokeWidth=1;fontSize=14;fillColor=none;" parent="y8qSzoBmnQ5KJykXtGh9-41" vertex="1">
          <mxGeometry x="514.9220489977728" y="159.53846153846155" width="121.15812917594654" height="131.3846153846154" as="geometry" />
        </mxCell>
        <mxCell id="y8qSzoBmnQ5KJykXtGh9-60" value="Executor线程" style="rounded=0;whiteSpace=wrap;html=1;strokeColor=none;strokeWidth=1;fontSize=14;fillColor=none;" parent="y8qSzoBmnQ5KJykXtGh9-41" vertex="1">
          <mxGeometry x="513.4075723830734" y="159.53846153846155" width="100.96510764662212" height="32.84615384615385" as="geometry" />
        </mxCell>
        <mxCell id="y8qSzoBmnQ5KJykXtGh9-61" value="业务逻辑 task" style="rounded=0;whiteSpace=wrap;html=1;strokeColor=default;strokeWidth=1;fontSize=14;fillColor=none;dashed=1;" parent="y8qSzoBmnQ5KJykXtGh9-41" vertex="1">
          <mxGeometry x="525.0185597624351" y="187.69230769230768" width="100.96510764662212" height="37.53846153846154" as="geometry" />
        </mxCell>
        <mxCell id="y8qSzoBmnQ5KJykXtGh9-62" value="业务逻辑 task" style="rounded=0;whiteSpace=wrap;html=1;strokeColor=default;strokeWidth=1;fontSize=14;fillColor=none;dashed=1;" parent="y8qSzoBmnQ5KJykXtGh9-41" vertex="1">
          <mxGeometry x="525.0185597624351" y="242.12307692307692" width="100.96510764662212" height="37.53846153846154" as="geometry" />
        </mxCell>
        <mxCell id="y8qSzoBmnQ5KJykXtGh9-63" value="" style="rounded=0;whiteSpace=wrap;html=1;strokeWidth=1;fontSize=14;fillColor=default;strokeColor=#10739e;" parent="y8qSzoBmnQ5KJykXtGh9-41" vertex="1">
          <mxGeometry x="361.9599109131403" y="328.46153846153845" width="282.70230141054196" height="37.53846153846154" as="geometry" />
        </mxCell>
        <mxCell id="y8qSzoBmnQ5KJykXtGh9-64" style="edgeStyle=orthogonalEdgeStyle;rounded=0;orthogonalLoop=1;jettySize=auto;html=1;entryX=0;entryY=0.5;entryDx=0;entryDy=0;fontSize=14;" parent="y8qSzoBmnQ5KJykXtGh9-41" source="y8qSzoBmnQ5KJykXtGh9-51" target="y8qSzoBmnQ5KJykXtGh9-63" edge="1">
          <mxGeometry relative="1" as="geometry">
            <Array as="points">
              <mxPoint x="255.94654788418708" y="347.2307692307692" />
            </Array>
          </mxGeometry>
        </mxCell>
        <mxCell id="y8qSzoBmnQ5KJykXtGh9-65" value="worker进程" style="rounded=0;whiteSpace=wrap;html=1;strokeWidth=1;fontSize=14;fillColor=default;strokeColor=none;" parent="y8qSzoBmnQ5KJykXtGh9-41" vertex="1">
          <mxGeometry x="369.02746844840385" y="333.15384615384613" width="103.99406087602078" height="28.153846153846153" as="geometry" />
        </mxCell>
        <mxCell id="y8qSzoBmnQ5KJykXtGh9-66" value="" style="endArrow=classic;startArrow=classic;html=1;rounded=0;fontSize=14;" parent="y8qSzoBmnQ5KJykXtGh9-41" edge="1">
          <mxGeometry width="50" height="50" relative="1" as="geometry">
            <mxPoint x="87" y="93.84615384615384" as="sourcePoint" />
            <mxPoint x="87.33481811432813" y="66.63076923076923" as="targetPoint" />
          </mxGeometry>
        </mxCell>
        <mxCell id="y8qSzoBmnQ5KJykXtGh9-67" value="" style="endArrow=classic;startArrow=classic;html=1;rounded=0;fontSize=14;" parent="y8qSzoBmnQ5KJykXtGh9-41" edge="1">
          <mxGeometry width="50" height="50" relative="1" as="geometry">
            <mxPoint x="568" y="93.84615384615384" as="sourcePoint" />
            <mxPoint x="568.9383815887156" y="66.63076923076923" as="targetPoint" />
          </mxGeometry>
        </mxCell>
        <mxCell id="y8qSzoBmnQ5KJykXtGh9-68" value="" style="rounded=0;whiteSpace=wrap;html=1;strokeWidth=1;fontSize=14;fillColor=default;strokeColor=#10739e;" parent="y8qSzoBmnQ5KJykXtGh9-41" vertex="1">
          <mxGeometry x="361.9595619896065" y="522.7253846153847" width="282.70230141054196" height="37.53846153846154" as="geometry" />
        </mxCell>
        <mxCell id="y8qSzoBmnQ5KJykXtGh9-69" value="worker进程" style="rounded=0;whiteSpace=wrap;html=1;strokeWidth=1;fontSize=14;fillColor=none;strokeColor=none;" parent="y8qSzoBmnQ5KJykXtGh9-41" vertex="1">
          <mxGeometry x="361.96159613956945" y="522.7292307692308" width="103.99406087602078" height="28.153846153846153" as="geometry" />
        </mxCell>
        <mxCell id="y8qSzoBmnQ5KJykXtGh9-70" style="edgeStyle=orthogonalEdgeStyle;rounded=0;orthogonalLoop=1;jettySize=auto;html=1;entryX=0;entryY=0.5;entryDx=0;entryDy=0;fontSize=14;exitX=0.5;exitY=1;exitDx=0;exitDy=0;" parent="1" source="y8qSzoBmnQ5KJykXtGh9-46" target="y8qSzoBmnQ5KJykXtGh9-95" edge="1">
          <mxGeometry relative="1" as="geometry" />
        </mxCell>
        <mxCell id="y8qSzoBmnQ5KJykXtGh9-71" style="edgeStyle=orthogonalEdgeStyle;rounded=0;orthogonalLoop=1;jettySize=auto;html=1;entryX=0.547;entryY=1.004;entryDx=0;entryDy=0;entryPerimeter=0;fontSize=14;exitX=0.75;exitY=0;exitDx=0;exitDy=0;" parent="1" source="y8qSzoBmnQ5KJykXtGh9-42" target="y8qSzoBmnQ5KJykXtGh9-34" edge="1">
          <mxGeometry relative="1" as="geometry" />
        </mxCell>
        <mxCell id="y8qSzoBmnQ5KJykXtGh9-72" style="edgeStyle=orthogonalEdgeStyle;rounded=0;orthogonalLoop=1;jettySize=auto;html=1;entryX=0.25;entryY=1;entryDx=0;entryDy=0;fontSize=14;exitX=1.012;exitY=0.057;exitDx=0;exitDy=0;exitPerimeter=0;" parent="1" source="y8qSzoBmnQ5KJykXtGh9-73" target="y8qSzoBmnQ5KJykXtGh9-34" edge="1">
          <mxGeometry relative="1" as="geometry" />
        </mxCell>
        <mxCell id="y8qSzoBmnQ5KJykXtGh9-73" value="" style="rounded=0;whiteSpace=wrap;html=1;fillColor=none;strokeColor=#6c8ebf;dashed=1;strokeWidth=2;" parent="1" vertex="1">
          <mxGeometry x="373" y="480" width="250" height="690" as="geometry" />
        </mxCell>
        <mxCell id="y8qSzoBmnQ5KJykXtGh9-74" value="&lt;span style=&quot;font-size: 14px;&quot;&gt;后台管理平台&lt;/span&gt;" style="rounded=1;whiteSpace=wrap;html=1;fillColor=none;strokeColor=none;fontStyle=1" parent="1" vertex="1">
          <mxGeometry x="370" y="480" width="120" height="30" as="geometry" />
        </mxCell>
        <mxCell id="y8qSzoBmnQ5KJykXtGh9-75" value="" style="rounded=0;whiteSpace=wrap;html=1;strokeColor=#6c8ebf;strokeWidth=1;fontSize=14;fillColor=#dae8fc;" parent="1" vertex="1">
          <mxGeometry x="383" y="520" width="230" height="170" as="geometry" />
        </mxCell>
        <mxCell id="y8qSzoBmnQ5KJykXtGh9-76" value="权限管理" style="rounded=0;whiteSpace=wrap;html=1;strokeWidth=1;fontSize=14;fillColor=none;strokeColor=none;" parent="1" vertex="1">
          <mxGeometry x="396" y="520" width="64" height="30" as="geometry" />
        </mxCell>
        <mxCell id="y8qSzoBmnQ5KJykXtGh9-77" value="用户管理" style="rounded=0;whiteSpace=wrap;html=1;strokeWidth=1;fontSize=14;fillColor=default;strokeColor=#10739e;" parent="1" vertex="1">
          <mxGeometry x="406" y="547" width="190" height="30" as="geometry" />
        </mxCell>
        <mxCell id="y8qSzoBmnQ5KJykXtGh9-78" value="权限管理" style="rounded=0;whiteSpace=wrap;html=1;strokeWidth=1;fontSize=14;fillColor=default;strokeColor=#10739e;" parent="1" vertex="1">
          <mxGeometry x="406" y="590" width="190" height="30" as="geometry" />
        </mxCell>
        <mxCell id="y8qSzoBmnQ5KJykXtGh9-79" value="角色管理" style="rounded=0;whiteSpace=wrap;html=1;strokeWidth=1;fontSize=14;fillColor=default;strokeColor=#10739e;" parent="1" vertex="1">
          <mxGeometry x="406" y="634" width="190" height="30" as="geometry" />
        </mxCell>
        <mxCell id="y8qSzoBmnQ5KJykXtGh9-80" value="" style="rounded=0;whiteSpace=wrap;html=1;strokeColor=#6c8ebf;strokeWidth=1;fontSize=14;fillColor=#dae8fc;" parent="1" vertex="1">
          <mxGeometry x="385" y="710" width="230" height="210" as="geometry" />
        </mxCell>
        <mxCell id="y8qSzoBmnQ5KJykXtGh9-81" value="汽车接入" style="rounded=0;whiteSpace=wrap;html=1;strokeWidth=1;fontSize=14;fillColor=none;strokeColor=none;" parent="1" vertex="1">
          <mxGeometry x="398" y="710" width="64" height="30" as="geometry" />
        </mxCell>
        <mxCell id="y8qSzoBmnQ5KJykXtGh9-82" value="汽车信息注册" style="rounded=0;whiteSpace=wrap;html=1;strokeWidth=1;fontSize=14;fillColor=default;strokeColor=#10739e;" parent="1" vertex="1">
          <mxGeometry x="408" y="737" width="190" height="30" as="geometry" />
        </mxCell>
        <mxCell id="y8qSzoBmnQ5KJykXtGh9-83" value="汽车设备管理" style="rounded=0;whiteSpace=wrap;html=1;strokeWidth=1;fontSize=14;fillColor=default;strokeColor=#10739e;" parent="1" vertex="1">
          <mxGeometry x="408" y="780" width="190" height="30" as="geometry" />
        </mxCell>
        <mxCell id="y8qSzoBmnQ5KJykXtGh9-84" value="汽车状态监控" style="rounded=0;whiteSpace=wrap;html=1;strokeWidth=1;fontSize=14;fillColor=default;strokeColor=#10739e;" parent="1" vertex="1">
          <mxGeometry x="408" y="824" width="190" height="30" as="geometry" />
        </mxCell>
        <mxCell id="y8qSzoBmnQ5KJykXtGh9-85" value="汽车服务配置管理" style="rounded=0;whiteSpace=wrap;html=1;strokeWidth=1;fontSize=14;fillColor=default;strokeColor=#10739e;" parent="1" vertex="1">
          <mxGeometry x="406" y="870" width="190" height="30" as="geometry" />
        </mxCell>
        <mxCell id="y8qSzoBmnQ5KJykXtGh9-86" value="" style="rounded=0;whiteSpace=wrap;html=1;strokeColor=#6c8ebf;strokeWidth=1;fontSize=14;fillColor=#dae8fc;" parent="1" vertex="1">
          <mxGeometry x="385" y="940" width="230" height="210" as="geometry" />
        </mxCell>
        <mxCell id="y8qSzoBmnQ5KJykXtGh9-87" value="运维管理" style="rounded=0;whiteSpace=wrap;html=1;strokeWidth=1;fontSize=14;fillColor=none;strokeColor=none;" parent="1" vertex="1">
          <mxGeometry x="400" y="940" width="64" height="30" as="geometry" />
        </mxCell>
        <mxCell id="y8qSzoBmnQ5KJykXtGh9-88" value="Logstash+Elasticsearch&lt;br&gt;+Kibana" style="rounded=0;whiteSpace=wrap;html=1;strokeWidth=1;fontSize=14;fillColor=default;strokeColor=#10739e;" parent="1" vertex="1">
          <mxGeometry x="405" y="970" width="190" height="40" as="geometry" />
        </mxCell>
        <mxCell id="y8qSzoBmnQ5KJykXtGh9-89" value="Grafana" style="rounded=0;whiteSpace=wrap;html=1;strokeWidth=1;fontSize=14;fillColor=default;strokeColor=#10739e;" parent="1" vertex="1">
          <mxGeometry x="403" y="1029" width="190" height="40" as="geometry" />
        </mxCell>
        <mxCell id="y8qSzoBmnQ5KJykXtGh9-90" value="Alarm Manager" style="rounded=0;whiteSpace=wrap;html=1;strokeWidth=1;fontSize=14;fillColor=default;strokeColor=#10739e;" parent="1" vertex="1">
          <mxGeometry x="403" y="1090" width="190" height="40" as="geometry" />
        </mxCell>
        <mxCell id="y8qSzoBmnQ5KJykXtGh9-91" value="&lt;font style=&quot;font-size: 18px;&quot;&gt;Iot服务平台&lt;/font&gt;" style="rounded=0;whiteSpace=wrap;html=1;fillColor=#0050ef;fontColor=#ffffff;strokeColor=#001DBC;fontSize=18;fontStyle=1" parent="1" vertex="1">
          <mxGeometry x="341" y="160" width="1050" height="40" as="geometry" />
        </mxCell>
        <mxCell id="y8qSzoBmnQ5KJykXtGh9-92" style="edgeStyle=orthogonalEdgeStyle;rounded=0;orthogonalLoop=1;jettySize=auto;html=1;entryX=0;entryY=0.25;entryDx=0;entryDy=0;fontSize=15;" parent="1" source="y8qSzoBmnQ5KJykXtGh9-93" target="y8qSzoBmnQ5KJykXtGh9-73" edge="1">
          <mxGeometry relative="1" as="geometry" />
        </mxCell>
        <mxCell id="y8qSzoBmnQ5KJykXtGh9-93" value="" style="shape=actor;whiteSpace=wrap;html=1;rounded=0;strokeColor=#314354;strokeWidth=1;fontSize=18;fillColor=#647687;fontColor=#ffffff;" parent="1" vertex="1">
          <mxGeometry x="160" y="550" width="40" height="60" as="geometry" />
        </mxCell>
        <mxCell id="y8qSzoBmnQ5KJykXtGh9-94" value="后台管理员" style="text;strokeColor=none;align=center;fillColor=none;html=1;verticalAlign=middle;whiteSpace=wrap;rounded=0;strokeWidth=1;fontSize=15;" parent="1" vertex="1">
          <mxGeometry x="150" y="620" width="60" height="30" as="geometry" />
        </mxCell>
        <mxCell id="y8qSzoBmnQ5KJykXtGh9-95" value="" style="rounded=0;whiteSpace=wrap;html=1;strokeColor=#6c8ebf;strokeWidth=1;fontSize=14;fillColor=#dae8fc;" parent="1" vertex="1">
          <mxGeometry x="865" y="983" width="460" height="170" as="geometry" />
        </mxCell>
        <mxCell id="y8qSzoBmnQ5KJykXtGh9-96" value="工作节点" style="rounded=0;whiteSpace=wrap;html=1;strokeColor=none;strokeWidth=1;fontSize=14;fillColor=none;fontStyle=1" parent="1" vertex="1">
          <mxGeometry x="855" y="986" width="97" height="30" as="geometry" />
        </mxCell>
        <mxCell id="y8qSzoBmnQ5KJykXtGh9-97" value="Supervisor" style="rounded=0;whiteSpace=wrap;html=1;strokeWidth=1;fontSize=14;fillColor=default;strokeColor=#10739e;" parent="1" vertex="1">
          <mxGeometry x="875" y="1018" width="90" height="30" as="geometry" />
        </mxCell>
        <mxCell id="y8qSzoBmnQ5KJykXtGh9-98" value="" style="rounded=0;whiteSpace=wrap;html=1;strokeWidth=1;fontSize=14;fillColor=default;strokeColor=#10739e;" parent="1" vertex="1">
          <mxGeometry x="1030" y="1022" width="280" height="45" as="geometry" />
        </mxCell>
        <mxCell id="y8qSzoBmnQ5KJykXtGh9-99" style="edgeStyle=orthogonalEdgeStyle;rounded=0;orthogonalLoop=1;jettySize=auto;html=1;entryX=0;entryY=0.25;entryDx=0;entryDy=0;fontSize=14;" parent="1" source="y8qSzoBmnQ5KJykXtGh9-97" target="y8qSzoBmnQ5KJykXtGh9-98" edge="1">
          <mxGeometry relative="1" as="geometry" />
        </mxCell>
        <mxCell id="y8qSzoBmnQ5KJykXtGh9-100" value="worker进程" style="rounded=0;whiteSpace=wrap;html=1;strokeWidth=1;fontSize=14;fillColor=default;strokeColor=none;" parent="1" vertex="1">
          <mxGeometry x="1038.5" y="1027" width="103" height="30" as="geometry" />
        </mxCell>
        <mxCell id="y8qSzoBmnQ5KJykXtGh9-101" style="edgeStyle=orthogonalEdgeStyle;rounded=0;orthogonalLoop=1;jettySize=auto;html=1;entryX=0;entryY=0.5;entryDx=0;entryDy=0;fontSize=14;exitX=0.5;exitY=1;exitDx=0;exitDy=0;" parent="1" source="y8qSzoBmnQ5KJykXtGh9-97" target="y8qSzoBmnQ5KJykXtGh9-68" edge="1">
          <mxGeometry relative="1" as="geometry" />
        </mxCell>
        <mxCell id="y8qSzoBmnQ5KJykXtGh9-102" value="" style="rounded=0;whiteSpace=wrap;html=1;strokeWidth=1;fontSize=14;fillColor=default;strokeColor=#10739e;" parent="1" vertex="1">
          <mxGeometry x="1030" y="1085" width="280" height="45" as="geometry" />
        </mxCell>
        <mxCell id="y8qSzoBmnQ5KJykXtGh9-103" value="worker进程" style="rounded=0;whiteSpace=wrap;html=1;strokeWidth=1;fontSize=14;fillColor=default;strokeColor=none;" parent="1" vertex="1">
          <mxGeometry x="1038.5" y="1090" width="103" height="30" as="geometry" />
        </mxCell>
      </root>
    </mxGraphModel>
  </diagram>
</mxfile>
